<?xml version="1.0" encoding="utf-8"?>
<!-- Generator: Adobe Illustrator 24.0.0, SVG Export Plug-In . SVG Version: 6.00 Build 0)  -->
<svg version="1.1" xmlns="http://www.w3.org/2000/svg" xmlns:xlink="http://www.w3.org/1999/xlink" x="0px" y="0px"
	 viewBox="0 0 64 64" enable-background="new 0 0 64 64" xml:space="preserve">
<g id="Captions">
</g>
<g id="Icons">
	<g>
		<polygon fill="#00A0C8" points="56,38 56,50 48,50 48,38 44,38 44,60 60,60 60,38 		"/>
		<g>
			<path fill="#0A5078" d="M33,36h-2c-2.761,0-5,2.239-5,5v10c0,0.552,0.448,1,1,1h10c0.552,0,1-0.448,1-1V41
				C38,38.239,35.761,36,33,36z"/>
		</g>
		<polygon fill="#C80A50" points="36,38 36,50 28,50 28,38 24,38 24,60 40,60 40,38 		"/>
		<polygon fill="#FAB400" points="16,38 16,50 8,50 8,38 4,38 4,60 20,60 20,38 		"/>
		<g>
			<rect x="16" y="16" fill="#0A5078" width="32" height="4"/>
		</g>
		<g>
			<path fill="#00325A" d="M40.495,20C40.846,18.53,41,17.111,41,16H21c0,1.111,0.154,2.53,0.505,4H40.495z"/>
		</g>
		<g>
			<g>
				<rect x="30" y="50" fill="#00A0C8" width="4" height="10"/>
			</g>
			<g>
				<path fill="#D2AA82" d="M32,52L32,52c-1.105,0-2-0.895-2-2v-3h4v3C34,51.105,33.105,52,32,52z"/>
			</g>
			<g>
				<path fill="#F0C8A0" d="M33,48h-2c-1.657,0-3-1.343-3-3v-3c0-1.105,0.895-2,2-2h1v0c0,1.105,0.895,2,2,2h3v3
					C36,46.657,34.657,48,33,48z"/>
			</g>
		</g>
		<g>
			<g>
				<rect x="11" y="50" fill="#00A0C8" width="2" height="10"/>
			</g>
			<g>
				<path fill="#D2AA82" d="M12,52L12,52c-1.105,0-2-0.895-2-2v-3h4v3C14,51.105,13.105,52,12,52z"/>
			</g>
			<g>
				<path fill="#F0C8A0" d="M13,48h-2c-1.657,0-3-1.343-3-3v-3c0-1.105,0.895-2,2-2h4c1.105,0,2,0.895,2,2v3
					C16,46.657,14.657,48,13,48z"/>
			</g>
			<g>
				<path fill="#0A5078" d="M14,40h-4c-1.105,0-2,0.895-2,2v0v-2c0-1.105,0.895-2,2-2h4c1.105,0,2,0.895,2,2v2v0
					C16,40.895,15.105,40,14,40z"/>
			</g>
		</g>
		<g>
			<path fill="#F0C8A0" d="M18,32c-1.105,0-2,0.895-2,2v1c-0.552,0-1,0.448-1,1c0,0.552,0.448,1,1,1v1h4v-4
				C20,32.895,19.105,32,18,32z"/>
			<path fill="#F0C8A0" d="M8,35v-1c0-1.105-0.895-2-2-2s-2,0.895-2,2v4h4v-1c0.552,0,1-0.448,1-1C9,35.448,8.552,35,8,35z"/>
		</g>
		<g>
			<path fill="#F0C8A0" d="M28,35v-1c0-1.105-0.895-2-2-2s-2,0.895-2,2v4h4v-1c0.552,0,1-0.448,1-1C29,35.448,28.552,35,28,35z"/>
			<path fill="#F0C8A0" d="M38,32c-1.105,0-2,0.895-2,2v1c-0.552,0-1,0.448-1,1c0,0.552,0.448,1,1,1v1h4v-4
				C40,32.895,39.105,32,38,32z"/>
		</g>
		<g>
			<g>
				<rect x="51" y="50" fill="#0A5078" width="2" height="10"/>
			</g>
			<g>
				<path fill="#D2AA82" d="M52,52L52,52c-1.105,0-2-0.895-2-2v-3h4v3C54,51.105,53.105,52,52,52z"/>
			</g>
			<g>
				<path fill="#F0C8A0" d="M53,48h-2c-1.657,0-3-1.343-3-3v-3c0-1.105,0.895-2,2-2h4c1.105,0,2,0.895,2,2v3
					C56,46.657,54.657,48,53,48z"/>
			</g>
			<g>
				<path fill="#DC9600" d="M54,40h-4c-1.105,0-2,0.895-2,2v0v-2c0-1.105,0.895-2,2-2h4c1.105,0,2,0.895,2,2v2v0
					C56,40.895,55.105,40,54,40z"/>
			</g>
		</g>
		<g>
			<path fill="#F0C8A0" d="M48,35v-1c0-1.105-0.895-2-2-2s-2,0.895-2,2v4h4v-1c0.552,0,1-0.448,1-1C49,35.448,48.552,35,48,35z"/>
			<path fill="#F0C8A0" d="M58,32c-1.105,0-2,0.895-2,2v1c-0.552,0-1,0.448-1,1c0,0.552,0.448,1,1,1v1h4v-4
				C60,32.895,59.105,32,58,32z"/>
		</g>
		<g>
			<path fill="#0A5078" d="M32,15c-0.553,0-1-0.447-1-1v-2c0-2.757,2.243-5,5-5c0.553,0,1,0.447,1,1s-0.447,1-1,1
				c-1.654,0-3,1.346-3,3v2C33,14.553,32.553,15,32,15z"/>
		</g>
		<g>
			<path fill="#C80A50" d="M36,10c-1.539,0-2.938,0.584-4,1.537C30.938,10.584,29.539,10,28,10c-3.314,0-6,2.686-6,6c0,4,2,12,8,12
				c0.732,0,1.41-0.211,2-0.555C32.59,27.789,33.268,28,34,28c6,0,8-8,8-12C42,12.686,39.314,10,36,10z"/>
		</g>
		<g>
			<circle fill="#F0F0F0" cx="26" cy="14" r="1"/>
		</g>
		<g>
			<path fill="#0A5078" d="M51,28h-2c-0.552,0-1-0.448-1-1V9c0-0.552,0.448-1,1-1h2c0.552,0,1,0.448,1,1v18
				C52,27.552,51.552,28,51,28z"/>
		</g>
		<g>
			<path fill="#0A5078" d="M55,24h-2c-0.552,0-1-0.448-1-1V13c0-0.552,0.448-1,1-1h2c0.552,0,1,0.448,1,1v10
				C56,23.552,55.552,24,55,24z"/>
		</g>
		<g>
			<path fill="#0A5078" d="M13,28h2c0.552,0,1-0.448,1-1V9c0-0.552-0.448-1-1-1h-2c-0.552,0-1,0.448-1,1v18
				C12,27.552,12.448,28,13,28z"/>
		</g>
		<g>
			<path fill="#0A5078" d="M9,24h2c0.552,0,1-0.448,1-1V13c0-0.552-0.448-1-1-1H9c-0.552,0-1,0.448-1,1v10C8,23.552,8.448,24,9,24z"
				/>
		</g>
		<g>
			<path fill="#00325A" d="M12,23V13c0-0.552-0.448-1-1-1v12C11.552,24,12,23.552,12,23z"/>
		</g>
		<g>
			<path fill="#00325A" d="M52,23V13c0-0.552,0.448-1,1-1v12C52.448,24,52,23.552,52,23z"/>
		</g>
		<g>
			<rect x="16" y="16" fill="#00325A" width="1" height="4"/>
		</g>
		<g>
			<rect x="47" y="16" fill="#00325A" width="1" height="4"/>
		</g>
	</g>
</g>
</svg>
