<svg xmlns="http://www.w3.org/2000/svg" viewBox="0 0 500 500"><g id="freepik--background-complete--inject-64"><path d="M377.71,306.17c-15.79-13.77-17.28-36.33-14.46-56.15.47-3.31.49-6.86,2.38-9.6s5.8-4.34,8.62-2.62c2.34,1.43,3.11,4.41,4.23,6.94a19.62,19.62,0,0,0,7,8.28c2,1.32,4.54,2.28,6.75,1.35,3-1.27,3.81-5.2,4.14-8.5q.94-9.24,1.88-18.49c.33-3.3.69-6.68,2.05-9.7s3.95-5.69,7.19-6.24,6.93,1.69,7.24,5a30.27,30.27,0,0,1-.35,4.12c-.05,1.38.42,3,1.68,3.49s2.7-.26,3.8-1.12c3.77-3,6.54-7,9.17-11.06s5.19-8.19,8.68-11.49,8.07-5.73,12.83-5.49,9.49,3.71,10.18,8.48-2.52,9.22-5.89,12.67a74.11,74.11,0,0,1-16.93,13,6.15,6.15,0,0,0-2.87,2.49c-.95,2.12.9,4.54,3,5.49,2.37,1.09,5.07,1.12,7.61,1.7s5.22,2,5.93,4.56c1,3.52-2.22,6.76-5.25,8.78a63.7,63.7,0,0,1-19.86,8.78c-2.52.62-5.17,1.13-7.31,2.62s-3.65,4.34-2.71,6.8,3.89,3.53,6.49,3.33,5-1.34,7.54-2c4.73-1.22,10.56-.28,13,4,1.64,2.78,1.42,6.39.12,9.36a24.26,24.26,0,0,1-5.89,7.63,63.9,63.9,0,0,1-29.18,16.14c-10.92,2.51-20.79,2.45-30.84-2.5" style="fill:#f5f5f5"></path><path d="M384.19,294.24a298.6,298.6,0,0,1,15.18-30.6l4.4-7.82c1.45-2.56,2.88-5.1,4.44-7.5A147.55,147.55,0,0,1,418,235c3.3-4.07,6.58-7.81,9.68-11.29s6.05-6.65,8.87-9.44a118.45,118.45,0,0,1,14.25-12.14c1.79-1.3,3.21-2.26,4.18-2.9l1.11-.72a3.32,3.32,0,0,1,.39-.23,1.63,1.63,0,0,1-.35.28l-1.08.77c-.95.67-2.34,1.67-4.11,3a124.69,124.69,0,0,0-14.09,12.26c-2.79,2.8-5.71,6-8.8,9.47s-6.33,7.24-9.62,11.31a151,151,0,0,0-9.67,13.25c-1.55,2.38-3,4.9-4.42,7.47l-4.38,7.82a303.27,303.27,0,0,0-15.2,30.52" style="fill:#e0e0e0"></path><path d="M408.38,248.31a6.83,6.83,0,0,1-.17-1.44c-.07-.93-.14-2.29-.19-4-.11-3.34-.11-7.95-.09-13s0-9.7-.2-13c-.08-1.67-.16-3-.22-3.94a6.83,6.83,0,0,1,0-1.46,7.19,7.19,0,0,1,.26,1.43c.14.93.28,2.27.42,3.94.27,3.33.4,8,.38,13.06s-.06,9.56-.09,13v4A5.74,5.74,0,0,1,408.38,248.31Z" style="fill:#e0e0e0"></path><path d="M451.72,245a9.26,9.26,0,0,1-1.72,0c-1.1,0-2.69-.06-4.66,0-3.94,0-9.37.19-15.36.66s-11.39,1.16-15.29,1.75c-1.95.29-3.52.56-4.6.74a9.13,9.13,0,0,1-1.71.23,10.42,10.42,0,0,1,1.66-.46c1.08-.26,2.64-.6,4.59-.94,3.88-.71,9.3-1.45,15.3-1.93a149.89,149.89,0,0,1,15.42-.49c2,0,3.56.15,4.66.24A9.48,9.48,0,0,1,451.72,245Z" style="fill:#e0e0e0"></path><path d="M384.79,293.52a2,2,0,0,1-.23-.55c-.15-.44-.34-1-.56-1.62-.48-1.4-1.12-3.45-1.89-6-1.52-5.09-3.41-12.18-5.38-20s-3.79-15-5.21-20.07c-.7-2.49-1.27-4.53-1.69-6.05-.19-.66-.33-1.2-.46-1.65s-.14-.58-.11-.59a2.47,2.47,0,0,1,.23.55c.15.44.34,1,.56,1.62.48,1.4,1.13,3.45,1.89,6,1.52,5.08,3.41,12.18,5.38,20s3.79,15,5.21,20.07c.7,2.49,1.27,4.53,1.69,6,.19.66.33,1.21.46,1.65S384.82,293.51,384.79,293.52Z" style="fill:#e0e0e0"></path><path d="M443.2,281.41a2.38,2.38,0,0,1-.58.17l-1.7.37-6.26,1.31c-5.28,1.11-12.56,2.72-20.6,4.51s-15.34,3.33-20.64,4.33c-2.66.5-4.81.88-6.3,1.11l-1.72.26a2.52,2.52,0,0,1-.61,0,2.38,2.38,0,0,1,.59-.17l1.7-.37,6.25-1.31c5.28-1.11,12.56-2.72,20.6-4.51s15.34-3.33,20.65-4.33c2.65-.5,4.8-.88,6.29-1.11l1.72-.26A2.55,2.55,0,0,1,443.2,281.41Z" style="fill:#e0e0e0"></path><path d="M48.56,135.19s-6.23,2.52.95,15.75,12.11,19.75,12.11,19.75,1.29,3.09-1.32,3.64-8.4-.22-9.48,3,1.37,6.43,6.34,9.05,15.64,8.78,16.61,9.34,1.91,2,.2,2.64-14.66,2.35-13.49,8.44S76.69,218,78.33,218.54s2,1.26,1.93,2.15-4.52,1.05-8.18,1.68-7.8,2-6.83,5.46,10,10.55,31.49,12.1l10,.06L112,231.4c10-19.06,8.81-30.46,6.38-33.11s-5.77.13-8.25,2.9-4.93,6.43-5.75,6.05-1.17-1.08-.8-2.77,4-17.13-.5-21.35-12.84,5.88-14.31,7-2.16-.47-2.13-1.56.46-13.43.86-19-.89-9.35-4.33-10.17-5.73,4.54-7.58,6.46-3.78-.81-3.78-.81-2.93-7.61-10.36-20.71-13-9-13-9" style="fill:#ebebeb"></path><path d="M107.32,242.33c-5.42-9.64-14.76-26.94-22.85-41.75S69,172.37,63.66,162.7l-6.37-11.44c-.74-1.35-1.33-2.39-1.73-3.12-.19-.34-.34-.61-.44-.81a2.77,2.77,0,0,1-.14-.28l.17.27.47.79,1.78,3.09c1.54,2.68,3.75,6.57,6.45,11.4,5.42,9.64,12.79,23,20.89,37.83s17.41,32.12,22.77,41.79" style="fill:#e0e0e0"></path><path d="M58.88,178.75a3,3,0,0,1,.7.18c.45.13,1.09.34,1.88.6,1.57.53,3.73,1.32,6.09,2.24l6,2.36,1.83.71a3.37,3.37,0,0,1,.67.28,3.18,3.18,0,0,1-.71-.17c-.44-.13-1.08-.34-1.87-.61-1.57-.55-3.72-1.37-6.08-2.28l-6.06-2.32-1.84-.7A3.36,3.36,0,0,1,58.88,178.75Z" style="fill:#e0e0e0"></path><path d="M76.76,184.47c-.08,0,1.36-4.55,3.21-10.1s3.41-10,3.49-10-1.35,4.54-3.2,10.09S76.85,184.49,76.76,184.47Z" style="fill:#e0e0e0"></path><path d="M88.17,207.77a2.76,2.76,0,0,1,.39-.63l1.14-1.65c1-1.4,2.29-3.33,3.67-5.52s2.57-4.2,3.41-5.67l1-1.74a2.76,2.76,0,0,1,.4-.62,4.49,4.49,0,0,1-.3.68c-.2.43-.52,1-.92,1.79-.79,1.5-2,3.54-3.34,5.73s-2.74,4.11-3.75,5.48c-.5.68-.92,1.22-1.22,1.59A3.63,3.63,0,0,1,88.17,207.77Z" style="fill:#e0e0e0"></path><path d="M70.86,206.16a3.25,3.25,0,0,1,.68,0l1.85.1c1.57.1,3.73.25,6.11.44s4.54.39,6.1.54l1.85.2a3,3,0,0,1,.67.11,3.25,3.25,0,0,1-.68,0l-1.85-.1c-1.57-.1-3.73-.25-6.11-.45s-4.54-.38-6.1-.53l-1.85-.2A2.69,2.69,0,0,1,70.86,206.16Z" style="fill:#e0e0e0"></path><path d="M78.31,228a5,5,0,0,1,.88,0l2.37.12c2,.11,4.78.29,7.84.5s5.82.43,7.82.6l2.37.22a5.38,5.38,0,0,1,.87.12,4.85,4.85,0,0,1-.87,0l-2.38-.12c-2-.11-4.78-.29-7.84-.51s-5.82-.42-7.82-.59l-2.37-.22A5.38,5.38,0,0,1,78.31,228Z" style="fill:#e0e0e0"></path><path d="M99.94,229.38a5.21,5.21,0,0,1,.47-.81l1.38-2.14c1.16-1.81,2.74-4.32,4.42-7.15s3.13-5.41,4.17-7.29c.5-.9.92-1.65,1.23-2.23a6,6,0,0,1,.49-.8,6,6,0,0,1-.38.86c-.26.54-.65,1.32-1.14,2.28-1,1.91-2.42,4.52-4.1,7.34s-3.3,5.33-4.51,7.11c-.6.89-1.1,1.61-1.46,2.09A5.14,5.14,0,0,1,99.94,229.38Z" style="fill:#e0e0e0"></path><rect x="394.38" y="339.35" width="57.54" height="85.37" transform="translate(-32.55 724.58) rotate(-79.01)" style="fill:#ebebeb"></rect><path d="M470.68,362.66a6.58,6.58,0,0,1-.93.6L467,364.85l-10.12,5.73-33.61,18.71-.28.15-.2-.24-.5-.58-25.18-29.76-7.56-9.08-2-2.49a6,6,0,0,1-.67-.91,6.88,6.88,0,0,1,.79.81l2.13,2.39,7.76,8.92c6.53,7.63,15.47,18.08,25.35,29.61l.5.59-.48-.09,33.72-18.5,10.24-5.52c1.16-.61,2.09-1.1,2.8-1.46A6.37,6.37,0,0,1,470.68,362.66Z" style="fill:#e0e0e0"></path><path d="M375.9,402.87c-.13-.16,7.67-6.68,17.43-14.56s17.79-14.12,17.93-13.95-7.67,6.68-17.44,14.56S376,403,375.9,402.87Z" style="fill:#e0e0e0"></path><path d="M439.25,379.06c.19-.1,4.93,8.8,10.57,19.87s10.08,20.12,9.89,20.22-4.93-8.8-10.58-19.87S439.06,379.16,439.25,379.06Z" style="fill:#e0e0e0"></path><path d="M434.08,99.64a8,8,0,0,1-1.43.1l-4.1.08-15.1.15-49.79.14h-4v-.47c.05-18.6.1-35.28.14-47.43.06-6,.11-10.79.15-14.25,0-1.6.06-2.89.08-3.86a6.09,6.09,0,0,1,.1-1.34,7.76,7.76,0,0,1,.09,1.34l.08,3.86c0,3.46.09,8.3.15,14.25,0,12.15.09,28.83.14,47.43l-.46-.47h3.55l49.79.14,15.1.15,4.1.09A8.81,8.81,0,0,1,434.08,99.64Z" style="fill:#e0e0e0"></path><path d="M425.86,49a19.08,19.08,0,0,1-2.2,2.1l-6.25,5.49c-5.3,4.6-12.66,10.9-20.83,17.81l-1.24,1-.32.27-.3-.28-9.27-8.61H386L372.42,78.06l-3.95,3.15A7.89,7.89,0,0,1,367,82.27a9.17,9.17,0,0,1,1.3-1.27q1.48-1.32,3.79-3.35l13.39-11.49.29-.25.28.27,9.31,8.56h-.62l1.24-1c8.17-6.92,15.6-13.14,21-17.61l6.44-5.26A18.7,18.7,0,0,1,425.86,49Z" style="fill:#e0e0e0"></path><path d="M425.86,64.48a23.58,23.58,0,0,1-.32-4.61c-.09-2.86-.14-6.83-.15-11.25l.47.47h-.8c-4.6,0-8.76-.05-11.78-.14a24.93,24.93,0,0,1-4.88-.33,25.94,25.94,0,0,1,4.88-.33c3-.08,7.18-.14,11.78-.14h1.27v.47c0,4.42-.06,8.39-.14,11.25A23,23,0,0,1,425.86,64.48Z" style="fill:#e0e0e0"></path><path d="M45.48,346.18a18.43,18.43,0,0,1,4.52-2l.93-4.47,7.55-.14,1.09,4.44a18.65,18.65,0,0,1,4.58,1.8l3.82-2.5,5.43,5.25L71,352.5A18.43,18.43,0,0,1,73,357l4.47.93.13,7.55-4.43,1.09a18.49,18.49,0,0,1-1.8,4.58l2.5,3.82-5.25,5.44-3.9-2.37a18.43,18.43,0,0,1-4.52,2l-.93,4.47-7.55.14-1.09-4.44a18.49,18.49,0,0,1-4.58-1.8l-3.82,2.5-5.44-5.25,2.37-3.9a18.43,18.43,0,0,1-2-4.52l-4.47-.93-.14-7.55L37,357.65a18.65,18.65,0,0,1,1.8-4.58l-2.5-3.82,5.25-5.44,3.9,2.37Zm4,10.06A8.1,8.1,0,1,0,61,356,8.1,8.1,0,0,0,49.51,356.24Z" style="fill:#e0e0e0"></path><path d="M49.51,356.24A6.15,6.15,0,0,1,51,354.92a8,8,0,0,1,5.28-1.25,8.22,8.22,0,0,1,6.5,4.55,8.35,8.35,0,0,1,.79,4.77,8.28,8.28,0,0,1-6.85,7.09,7.72,7.72,0,0,1-2.49,0,8,8,0,0,1-2.3-.66,8.21,8.21,0,0,1-4.78-6.33,8,8,0,0,1,1.07-5.33,6,6,0,0,1,1.27-1.56s-.49.54-1.12,1.65a8.09,8.09,0,0,0-.89,5.19,7.79,7.79,0,0,0,1.39,3.37,7.88,7.88,0,0,0,3.23,2.62,7.65,7.65,0,0,0,2.19.61,7.5,7.5,0,0,0,2.36-.05,7.85,7.85,0,0,0,6.46-6.7,7.18,7.18,0,0,0,0-2.36,7.37,7.37,0,0,0-.68-2.16,7.88,7.88,0,0,0-2.74-3.14A7.72,7.72,0,0,0,56.26,354a8,8,0,0,0-5.15,1.07C50,355.74,49.55,356.29,49.51,356.24Z" style="fill:#e0e0e0"></path><path d="M45.48,346.18l-.25-.13-.75-.43-2.94-1.74h.09l-5.22,5.46,0-.14L39,353l0,.07,0,.07a18.74,18.74,0,0,0-1.77,4.56l0,.09-.09,0-4.43,1.1.13-.16c.05,2.37.1,4.9.15,7.55l-.15-.18,4.48.92.11,0,0,.11a18.47,18.47,0,0,0,1.95,4.47l.06.1-.06.1L37,375.75l0-.26c1.71,1.65,3.55,3.43,5.44,5.24l-.27,0,3.81-2.51.12-.07.11.06A18.21,18.21,0,0,0,50.68,380l.13,0,0,.13c.34,1.39.71,2.9,1.09,4.43l-.23-.17,7.56-.14-.23.19c.3-1.42.61-2.94.93-4.47l0-.14.14,0a18.07,18.07,0,0,0,4.45-1.94h0l.12-.07.12.07,3.9,2.37-.29,0,5.25-5.44,0,.29-2.5-3.82-.08-.12.07-.12A18,18,0,0,0,73,366.54l0-.14.14,0,4.43-1.08-.17.22q-.06-3.87-.12-7.56l.17.21L73,357.22l-.12,0,0-.12a18.09,18.09,0,0,0-1.93-4.47l-.07-.11.07-.1,2.37-3.9,0,.24-5.42-5.26.22,0L64.24,346l-.08.06-.09-.05a18.33,18.33,0,0,0-4.54-1.8l-.09,0,0-.09-1.07-4.44.13.1-7.55.1.1-.08c-.38,1.78-.7,3.24-1,4.46v0h0a19.53,19.53,0,0,0-3.46,1.33l-.81.42-.27.14.25-.17c.17-.11.44-.27.8-.46a17.89,17.89,0,0,1,3.45-1.4l-.06.05c.25-1.22.55-2.69.91-4.47v-.08h.09l7.55-.16h.11l0,.1c.35,1.37.71,2.82,1.11,4.43l-.12-.11a18.56,18.56,0,0,1,4.63,1.81h-.17l3.81-2.51.12-.08.1.1,5.45,5.24.11.11-.08.13-2.36,3.91v-.21a19,19,0,0,1,2,4.56l-.16-.14,4.48.92.16,0V358q.06,3.68.14,7.55v.18l-.17,0-4.44,1.09.17-.17a19,19,0,0,1-1.82,4.64v-.23c.82,1.26,1.66,2.53,2.5,3.81l.1.16-.13.13-5.24,5.44-.13.13-.16-.1-3.9-2.36h.23a18.49,18.49,0,0,1-4.57,2l.17-.18c-.32,1.53-.64,3.06-.93,4.47l0,.18h-.19l-7.55.13h-.18l0-.18-1.08-4.44.17.17a18.79,18.79,0,0,1-4.64-1.83h.23l-3.82,2.5-.15.1-.12-.12-5.43-5.26-.12-.11.09-.14c.82-1.36,1.63-2.7,2.37-3.9v.2a18.84,18.84,0,0,1-2-4.57l.15.14-4.47-.94-.14,0v-.15q-.06-4-.11-7.55v-.13l.12,0L37,357.5l-.11.11A19,19,0,0,1,38.71,353v.14l-2.49-3.83,0-.07.06-.07,5.28-5.41,0,0,0,0,2.88,1.79.74.47Z" style="fill:#e0e0e0"></path><path d="M99.87,325a10.93,10.93,0,0,1,2.7-1.17l.56-2.68,4.52-.08.65,2.66a10.92,10.92,0,0,1,2.75,1.08l2.28-1.5,3.25,3.14-1.41,2.34a10.93,10.93,0,0,1,1.17,2.7L119,332l.08,4.52-2.66.65a10.71,10.71,0,0,1-1.08,2.74l1.5,2.29-3.14,3.25-2.34-1.41a11.32,11.32,0,0,1-2.7,1.17l-.56,2.68-4.52.08-.65-2.66a10.71,10.71,0,0,1-2.74-1.08l-2.29,1.5-3.25-3.14,1.41-2.34a11.32,11.32,0,0,1-1.17-2.7L92.23,337l-.08-4.52,2.66-.65a10.92,10.92,0,0,1,1.08-2.75l-1.5-2.28,3.14-3.25L99.87,325Zm2.41,6a4.85,4.85,0,1,0,6.86-.12A4.85,4.85,0,0,0,102.28,331Z" style="fill:#f5f5f5"></path><path d="M102.28,331a3.62,3.62,0,0,1,.9-.8,4.86,4.86,0,0,1,3.17-.74,4.82,4.82,0,0,1,2.15.76,5.05,5.05,0,0,1,1.74,2,4.82,4.82,0,0,1,.44,1.36,4.65,4.65,0,0,1,0,1.49,5,5,0,0,1-4.1,4.25,4.66,4.66,0,0,1-1.49,0,4.49,4.49,0,0,1-1.38-.39,5,5,0,0,1-2-1.67,4.91,4.91,0,0,1-.84-2.12,4.83,4.83,0,0,1,.64-3.19,3.48,3.48,0,0,1,.76-.93s-.29.31-.67,1a4.87,4.87,0,0,0-.53,3.11,4.69,4.69,0,0,0,2.77,3.58,4.33,4.33,0,0,0,1.3.37,4.52,4.52,0,0,0,1.42,0,4.71,4.71,0,0,0,3.87-4,4.43,4.43,0,0,0,0-1.41,4.7,4.7,0,0,0-.41-1.3,4.86,4.86,0,0,0-1.64-1.88,4.81,4.81,0,0,0-5.13-.11A9.16,9.16,0,0,0,102.28,331Z" style="fill:#f5f5f5"></path><path d="M99.87,325l-.15-.08-.45-.26c-.41-.24-1-.58-1.76-1h0l-3.12,3.27v-.09c.46.69,1,1.46,1.51,2.28l0,0,0,0a11.24,11.24,0,0,0-1.06,2.73l0,.05,0,0-2.65.66.07-.1c0,1.42.06,2.93.09,4.52l-.08-.11,2.67.56H95l0,.07a11.08,11.08,0,0,0,1.17,2.67l0,.06,0,.06c-.44.73-.92,1.53-1.42,2.34l0-.15c1,1,2.13,2,3.26,3.14l-.16,0,2.28-1.5.07,0,.07,0a11.25,11.25,0,0,0,2.71,1.06l.08,0,0,.08c.21.83.43,1.74.65,2.65l-.13-.1,4.52-.08-.13.11c.17-.85.36-1.76.55-2.68l0-.08.08,0a10.76,10.76,0,0,0,2.67-1.16h0l.08,0,.07,0,2.33,1.41-.17,0,3.14-3.26v.17l-1.5-2.28,0-.07,0-.07a10.63,10.63,0,0,0,1.07-2.71l0-.08.08,0,2.66-.65-.1.13c0-1.54,0-3.05-.08-4.52l.1.12-2.67-.56h-.08l0-.08a10.64,10.64,0,0,0-1.16-2.67l0-.06,0-.07,1.43-2.33v.14l-3.24-3.14h.13l-2.29,1.49,0,0,0,0a10.88,10.88,0,0,0-2.72-1.07l0,0,0-.05c-.23-1-.44-1.84-.64-2.66l.08.06-4.52.06.06-.05c-.23,1.07-.42,2-.57,2.68v0h0a11.19,11.19,0,0,0-2.06.8l-.49.25-.16.08.15-.1c.1-.06.26-.16.48-.27a11,11,0,0,1,2.06-.85l0,0c.15-.73.32-1.61.54-2.68v-.05h0l4.52-.1h.06l0,.06c.2.82.42,1.69.66,2.65l-.07-.06a11.24,11.24,0,0,1,2.77,1.08H111l2.28-1.5.07,0,.06.06c1,1,2.12,2,3.26,3.14l.07.06,0,.08c-.46.76-.92,1.54-1.41,2.34v-.13a11.2,11.2,0,0,1,1.19,2.74l-.09-.09,2.68.55.1,0v.1c0,1.48,0,3,.08,4.53v.1l-.1,0-2.65.65.09-.1a11,11,0,0,1-1.09,2.78v-.14l1.5,2.28.06.09-.08.08-3.14,3.26-.08.08-.09-.06-2.34-1.42h.14a10.85,10.85,0,0,1-2.73,1.18l.1-.1c-.2.92-.39,1.83-.56,2.67l0,.11h-.11l-4.53.08h-.11l0-.1c-.22-.92-.45-1.83-.65-2.66l.1.1a11.67,11.67,0,0,1-2.78-1.09h.14L98,345.88l-.08.05-.08-.07-3.25-3.14-.07-.07,0-.09c.5-.81,1-1.61,1.42-2.33v.12a11.12,11.12,0,0,1-1.18-2.73l.09.08-2.68-.56-.08,0V337c0-1.58,0-3.1-.06-4.52v-.08l.08,0,2.66-.64-.07.07a11.2,11.2,0,0,1,1.1-2.76v.08l-1.49-2.29,0-.05,0,0,3.16-3.23,0,0,0,0,1.73,1.07.44.28Z" style="fill:#f5f5f5"></path><path d="M114.4,443.41v0l-2.06-8.4a34.48,34.48,0,0,1-8.67-3.41l-7.25,4.75h0l-10.33-10v0l4.48-7.39a34.87,34.87,0,0,1-3.71-8.54l-8.49-1.77v0l-.25-14.35h0l8.4-2.06A35,35,0,0,1,90,383.53l-4.75-7.25h0l10-10.33h0l7.39,4.49a35.35,35.35,0,0,1,8.55-3.72l1.76-8.48h0l14.35-.26v0l2.05,8.4a35.32,35.32,0,0,1,8.68,3.41l7.24-4.75,0,0,10.32,10h0l-4.48,7.39a34.94,34.94,0,0,1,3.71,8.55l8.49,1.77v0l.25,14.34h0l-8.4,2.06a35.41,35.41,0,0,1-3.41,8.67l4.75,7.24,0,0-10,10.32h0L139.08,431a34.94,34.94,0,0,1-8.55,3.71l-1.76,8.49h0Zm-10.74-11.89h0a35,35,0,0,0,8.68,3.42h0v0l2.06,8.39,14.29-.25,1.76-8.47h0a35,35,0,0,0,8.56-3.72h0l7.39,4.48,9.92-10.28-4.74-7.24h0a35.18,35.18,0,0,0,3.42-8.69h0l8.4-2-.25-14.29L154.77,391h0a35.08,35.08,0,0,0-3.72-8.56v0h0l4.48-7.39-10.29-9.92L138,369.87h0a35.32,35.32,0,0,0-8.68-3.41h0L127.23,358l-14.29.25-1.76,8.47h0a34.56,34.56,0,0,0-8.57,3.72h0L95.19,366l-9.92,10.28L90,383.53h0a35.18,35.18,0,0,0-3.42,8.69h0l-8.4,2.06.25,14.29,8.48,1.76v0a35.42,35.42,0,0,0,3.72,8.56h0v0l-4.47,7.38,10.28,9.93Zm17.62-15.89a15.4,15.4,0,0,1-11.07-26.1h0a15.38,15.38,0,0,1,10.81-4.7h.28a15.4,15.4,0,0,1,.26,30.79Zm-11-26.08,0,0a15.35,15.35,0,0,0,11,26h.28a15.35,15.35,0,0,0-.26-30.69H121a15.21,15.21,0,0,0-10.77,4.68Z" style="fill:#e0e0e0"></path><path d="M110.23,389.55a11.58,11.58,0,0,1,2.86-2.51,15.29,15.29,0,0,1,10-2.37,15.58,15.58,0,0,1,12.33,8.63,15.2,15.2,0,0,1,1.4,4.32,15,15,0,0,1,.08,4.73,15.67,15.67,0,0,1-13,13.44,15.72,15.72,0,0,1-9.1-1.17,15.6,15.6,0,0,1-9.06-12,15.34,15.34,0,0,1,2-10.11,11.63,11.63,0,0,1,2.41-2.95,36.89,36.89,0,0,0-2.11,3.12,15.27,15.27,0,0,0-1.7,9.84,15,15,0,0,0,8.77,11.37,14.91,14.91,0,0,0,8.62,1.06,14.9,14.9,0,0,0,12.27-12.71,15,15,0,0,0-1.36-8.57,15,15,0,0,0-11.67-8.37,15.3,15.3,0,0,0-9.78,2A37.41,37.41,0,0,0,110.23,389.55Z" style="fill:#e0e0e0"></path><path d="M102.59,370.47l-.48-.26-1.42-.82-5.58-3.29.18,0-9.9,10.37,0-.28,4.78,7.23.08.13-.07.13a35.11,35.11,0,0,0-3.37,8.64l0,.17-.17,0-8.41,2.09.24-.31c.09,4.51.19,9.3.29,14.32l-.28-.33L87,410l.22,0,.06.22a35.21,35.21,0,0,0,3.7,8.47l.12.19-.12.2-4.48,7.41-.06-.49L96.71,436l-.51,0,7.23-4.76.22-.14.22.13a34.87,34.87,0,0,0,8.59,3.37l.25.06.06.25c.65,2.64,1.36,5.51,2.07,8.41l-.43-.33,14.33-.25-.42.35c.56-2.68,1.16-5.57,1.76-8.48l.06-.27.25-.07a35,35,0,0,0,8.46-3.67h0l.23-.13.23.14,7.4,4.48-.54.07,10-10.3-.05.54c-1.59-2.44-3.18-4.85-4.74-7.24l-.14-.22.12-.23a34.85,34.85,0,0,0,3.39-8.59l.06-.25.25-.06,8.41-2.05-.32.41q-.12-7.33-.23-14.33l.32.39-8.48-1.77-.23-.05-.07-.23a34.81,34.81,0,0,0-3.67-8.48l-.12-.2.12-.2c1.55-2.53,3-5,4.5-7.39l.06.45-10.29-10,.42,0-7.25,4.73-.16.1-.17-.09a34.71,34.71,0,0,0-8.61-3.42l-.17,0,0-.17-2-8.42.26.2-14.33.19.19-.16c-.73,3.38-1.33,6.16-1.82,8.47l0,.09-.08,0a35,35,0,0,0-6.55,2.52l-1.55.8a3.07,3.07,0,0,1-.51.27,2.68,2.68,0,0,1,.48-.33c.33-.2.82-.5,1.51-.87a33.63,33.63,0,0,1,6.54-2.66l-.1.1c.47-2.31,1-5.1,1.71-8.49l0-.15h.16l14.33-.31h.2l0,.2c.65,2.6,1.33,5.35,2.09,8.4l-.21-.21a35.35,35.35,0,0,1,8.78,3.43h-.33l7.23-4.77.23-.14.19.18,10.33,9.94.21.2-.15.25c-1.45,2.41-2.94,4.87-4.48,7.41v-.39a35.33,35.33,0,0,1,3.77,8.65l-.3-.28,8.48,1.76.32.06v.33q.12,7,.26,14.33v.33l-.33.08-8.41,2.07.31-.31a35.3,35.3,0,0,1-3.45,8.8l0-.45,4.75,7.24.19.29-.24.25-9.95,10.32-.24.25-.3-.18-7.41-4.49h.45a35.54,35.54,0,0,1-8.67,3.77l.31-.34c-.6,2.92-1.21,5.81-1.76,8.48l-.08.35h-.35l-14.32.25h-.35l-.08-.33c-.71-2.9-1.41-5.78-2.06-8.41l.32.31a35.89,35.89,0,0,1-8.8-3.47l.43,0-7.24,4.74-.28.18-.23-.22-10.3-10-.23-.22.17-.27,4.5-7.39v.39a35.35,35.35,0,0,1-3.75-8.67l.27.26L78.33,409l-.27-.06v-.27c-.08-5-.15-9.82-.22-14.33V394l.24-.06,8.42-2-.21.21a35.91,35.91,0,0,1,3.47-8.75v.27l-4.71-7.26-.1-.15.12-.13,10-10.25.07-.08.1.06,5.45,3.39,1.41.89A2.8,2.8,0,0,1,102.59,370.47Z" style="fill:#e0e0e0"></path></g><g id="freepik--Document--inject-64"><rect x="102.84" y="67.8" width="300.65" height="383.74" transform="translate(-18.48 19.4) rotate(-4.23)" style="fill:#fff"></rect><path d="M117,462.65l0-.5L88.55,79l.5,0L389.38,56.69l0,.5,28.37,383.19-.5,0ZM89.62,79.88l28.26,381.7,298.83-22.12L388.45,57.76Z" style="fill:#263238"></path><rect x="281.76" y="76.91" width="81" height="5.2" transform="translate(-4.99 24.01) rotate(-4.23)" style="fill:#FC466B"></rect><path d="M361.49,113.76l-.49.09-1.43.15-5.24.48L337,115.92c-6.77.55-12.89,1-17.33,1.28l-5.26.31-1.43.06a2.38,2.38,0,0,1-.5,0,1.68,1.68,0,0,1,.49-.09l1.43-.16,5.24-.47L337,115.4c6.76-.56,12.88-1,17.32-1.29l5.26-.31,1.43-.06A1.48,1.48,0,0,1,361.49,113.76Z" style="fill:#FC466B"></path><path d="M366.33,133.31c0,.15-17.6,1.57-39.33,3.18s-39.37,2.79-39.38,2.65,17.6-1.56,39.34-3.17S366.32,133.17,366.33,133.31Z" style="fill:#263238"></path><path d="M367.66,158.24c0,.15-17.6,1.57-39.33,3.18S289,164.22,289,164.07s17.6-1.56,39.34-3.17S367.65,158.1,367.66,158.24Z" style="fill:#263238"></path><path d="M367.66,145.78c0,.14-17.6,1.56-39.33,3.17S289,151.75,289,151.61s17.6-1.57,39.34-3.18S367.65,145.64,367.66,145.78Z" style="fill:#263238"></path><path d="M202.45,320.34c0,.14-9.12.94-20.39,1.77s-20.42,1.4-20.43,1.25,9.12-.93,20.39-1.77S202.44,320.2,202.45,320.34Z" style="fill:#FC466B"></path><path d="M185.39,344.3c0,.15-12.22,1.17-27.32,2.29s-27.34,1.9-27.35,1.76,12.21-1.16,27.32-2.28S185.38,344.16,185.39,344.3Z" style="fill:#FC466B"></path><path d="M285,346.33c0,.14-34.36,2.8-76.76,5.94s-76.8,5.57-76.81,5.43,34.35-2.81,76.77-5.95S285,346.19,285,346.33Z" style="fill:#263238"></path><path d="M187.11,367.55c0,.14-12.22,1.16-27.31,2.28s-27.35,1.91-27.36,1.76,12.22-1.16,27.32-2.28S187.1,367.4,187.11,367.55Z" style="fill:#FC466B"></path><path d="M286.7,369.57c0,.15-34.36,2.81-76.76,5.95s-76.8,5.56-76.81,5.42,34.35-2.8,76.77-5.94S286.69,369.43,286.7,369.57Z" style="fill:#263238"></path><path d="M188.83,390.79c0,.14-12.22,1.16-27.31,2.28s-27.35,1.91-27.36,1.77,12.22-1.17,27.32-2.29S188.82,390.64,188.83,390.79Z" style="fill:#FC466B"></path><path d="M288.42,392.81c0,.15-34.36,2.81-76.76,5.95s-76.8,5.57-76.81,5.42,34.35-2.8,76.77-5.94S288.41,392.67,288.42,392.81Z" style="fill:#263238"></path><path d="M192.63,414.32c0,.14-12.23,1.16-27.32,2.28S138,418.51,138,418.36s12.22-1.16,27.32-2.28S192.61,414.17,192.63,414.32Z" style="fill:#FC466B"></path><path d="M292.22,416.34c0,.15-34.37,2.81-76.77,6s-76.8,5.57-76.81,5.42,34.36-2.8,76.77-5.94S292.2,416.2,292.22,416.34Z" style="fill:#263238"></path><rect x="133.06" y="316.38" width="18.8" height="11.94" transform="translate(-23.41 11.4) rotate(-4.23)" style="fill:#FC466B"></rect><rect x="139.26" y="328.31" width="7.55" height="3.74" transform="translate(-23.99 11.46) rotate(-4.23)" style="fill:#FC466B"></rect><path d="M149.81,331.42a38.53,38.53,0,0,1-6.28.83,37.68,37.68,0,0,1-6.33.3,39.24,39.24,0,0,1,6.28-.82A39.76,39.76,0,0,1,149.81,331.42Z" style="fill:#FC466B"></path><polygon points="302.87 302.18 314.59 295.75 326.13 300.13 315.32 306.93 302.87 302.18" style="fill:#FC466B"></polygon><polygon points="305.68 304.87 306.15 312.17 324.21 310.58 323.59 303.54 315.25 308.58 305.68 304.87" style="fill:#FC466B"></polygon><path d="M377,303.6c0,.15-9.12.94-20.39,1.77s-20.42,1.4-20.43,1.26,9.12-.94,20.39-1.78S377,303.46,377,303.6Z" style="fill:#FC466B"></path><path d="M335.13,328.7c0,.14-6.27.72-14,1.29s-14.05.93-14.06.78,6.27-.72,14-1.3S335.12,328.55,335.13,328.7Z" style="fill:#263238"></path><path d="M386.64,335c0,.15-17.63,1.57-39.39,3.18s-39.43,2.8-39.44,2.66,17.63-1.57,39.4-3.18S386.63,334.9,386.64,335Z" style="fill:#263238"></path><path d="M337.23,354.66c0,.15-6.26.73-14,1.3s-14,.93-14.05.78,6.26-.72,14-1.3S337.22,354.52,337.23,354.66Z" style="fill:#263238"></path><path d="M388.74,361c0,.15-17.63,1.57-39.39,3.18s-39.42,2.8-39.44,2.66,17.63-1.57,39.4-3.18S388.73,360.87,388.74,361Z" style="fill:#263238"></path><path d="M338.83,380.32c0,.15-6.27.73-14,1.3s-14,.92-14.06.78,6.27-.72,14-1.3S338.82,380.18,338.83,380.32Z" style="fill:#263238"></path><path d="M390.34,386.67c0,.15-17.63,1.57-39.39,3.18s-39.43,2.8-39.44,2.66,17.63-1.57,39.4-3.18S390.33,386.53,390.34,386.67Z" style="fill:#263238"></path><path d="M341.69,407.46c0,.14-6.26.72-14,1.3s-14,.92-14.05.78,6.26-.73,14-1.3S341.68,407.32,341.69,407.46Z" style="fill:#263238"></path><path d="M393.2,413.81c0,.14-17.63,1.56-39.39,3.18s-39.42,2.8-39.43,2.65,17.62-1.56,39.39-3.17S393.19,413.66,393.2,413.81Z" style="fill:#263238"></path><path d="M296.43,113a4.57,4.57,0,0,0,2.4-4.41,4.29,4.29,0,1,0-8.54.59,4.56,4.56,0,0,0,3,4c-6.49,1.47-5.66,8.59-5.66,8.59l15.53-1.08S303,113.51,296.43,113Z" style="fill:#FC466B"></path><path d="M321.73,213.82c0,.15-6.31.73-14.12,1.31s-14.15.93-14.16.79,6.31-.73,14.12-1.31S321.72,213.68,321.73,213.82Z" style="fill:#263238"></path><path d="M322.8,226.31c0,.14-6.31.73-14.12,1.31s-14.15.93-14.16.78,6.31-.73,14.12-1.3S322.79,226.17,322.8,226.31Z" style="fill:#263238"></path><path d="M377.66,211.15l-46,3.41a1.56,1.56,0,0,1-1.67-1.44h0a1.56,1.56,0,0,1,1.44-1.67l46-3.41a1.55,1.55,0,0,1,1.67,1.44h0A1.55,1.55,0,0,1,377.66,211.15Z" style="fill:#e0e0e0"></path><path d="M370.94,211.65l-39.31,2.91a1.56,1.56,0,0,1-1.67-1.44h0a1.56,1.56,0,0,1,1.44-1.67l39.31-2.91a1.56,1.56,0,0,1,1.67,1.44h0A1.57,1.57,0,0,1,370.94,211.65Z" style="fill:#FC466B"></path><path d="M378.53,222.9l-46,3.4a1.56,1.56,0,0,1-1.67-1.44h0a1.57,1.57,0,0,1,1.44-1.67l46-3.4a1.55,1.55,0,0,1,1.67,1.44h0A1.56,1.56,0,0,1,378.53,222.9Z" style="fill:#e0e0e0"></path><path d="M364.8,223.91l-32.3,2.39a1.56,1.56,0,0,1-1.67-1.44h0a1.57,1.57,0,0,1,1.44-1.67l32.3-2.39a1.56,1.56,0,0,1,1.67,1.44h0A1.56,1.56,0,0,1,364.8,223.91Z" style="fill:#FC466B"></path><path d="M324.16,239.06c0,.14-6.31.73-14.12,1.3s-14.15.93-14.16.79,6.31-.73,14.12-1.31S324.15,238.91,324.16,239.06Z" style="fill:#263238"></path><path d="M325.23,251.54c0,.15-6.31.73-14.12,1.31s-14.15.93-14.16.79,6.31-.73,14.12-1.31S325.22,251.4,325.23,251.54Z" style="fill:#263238"></path><path d="M380.09,236.38l-46,3.41a1.56,1.56,0,0,1-1.67-1.44h0a1.56,1.56,0,0,1,1.44-1.67l46-3.41a1.56,1.56,0,0,1,1.67,1.44h0A1.55,1.55,0,0,1,380.09,236.38Z" style="fill:#e0e0e0"></path><path d="M373.36,236.88l-39.3,2.91a1.56,1.56,0,0,1-1.67-1.44h0a1.56,1.56,0,0,1,1.44-1.67l39.3-2.91a1.56,1.56,0,0,1,1.67,1.44h0A1.55,1.55,0,0,1,373.36,236.88Z" style="fill:#FC466B"></path><path d="M381,248.13l-46,3.41a1.56,1.56,0,0,1-1.67-1.44h0a1.56,1.56,0,0,1,1.44-1.67l46-3.41a1.56,1.56,0,0,1,1.67,1.44h0A1.56,1.56,0,0,1,381,248.13Z" style="fill:#e0e0e0"></path><path d="M367.23,249.15l-32.3,2.39a1.56,1.56,0,0,1-1.67-1.44h0a1.56,1.56,0,0,1,1.44-1.67L367,246a1.56,1.56,0,0,1,1.67,1.44h0A1.56,1.56,0,0,1,367.23,249.15Z" style="fill:#FC466B"></path><path d="M326.84,264.85c0,.15-6.32.73-14.13,1.31s-14.15.93-14.16.79,6.31-.73,14.12-1.31S326.83,264.71,326.84,264.85Z" style="fill:#263238"></path><path d="M382.77,262.18l-46,3.4a1.56,1.56,0,0,1-1.67-1.44h0a1.58,1.58,0,0,1,1.44-1.67l46-3.4a1.57,1.57,0,0,1,1.68,1.44h0A1.57,1.57,0,0,1,382.77,262.18Z" style="fill:#e0e0e0"></path><path d="M362.27,263.69l-25.54,1.89a1.56,1.56,0,0,1-1.67-1.44h0a1.58,1.58,0,0,1,1.44-1.67L362,260.58a1.57,1.57,0,0,1,1.67,1.44h0A1.56,1.56,0,0,1,362.27,263.69Z" style="fill:#FC466B"></path><path d="M306.42,201.1l-1.62-2.85a7.67,7.67,0,1,0-1.83,2h0Z" style="fill:#FC466B"></path><path d="M365.53,190.25c0,.15-10.65,1.06-23.82,2s-23.85,1.65-23.86,1.51,10.65-1.05,23.82-2S365.52,190.11,365.53,190.25Z" style="fill:#FC466B"></path></g><g id="freepik--Character--inject-64"><polygon points="95.09 79.38 114.19 305.33 282.72 292.79 264.52 66.44 95.09 79.38" style="fill:#ebebeb"></polygon><rect x="109.9" y="64.5" width="167.03" height="226.92" transform="matrix(1, -0.07, 0.07, 1, -12.61, 14.77)" style="fill:#fafafa"></rect><path d="M118,297.81l0-.5L101.22,70.51l.49,0L268.78,58.1l0,.5,16.79,226.8-.5,0ZM102.29,71.43,119,296.74l165.57-12.26L267.86,59.18Z" style="fill:#263238"></path><path d="M234.81,92.9a2.41,2.41,0,0,1-.07-.38c0-.28-.09-.65-.16-1.12-.13-1-.32-2.47-.55-4.32s-.52-4.19-.85-6.85a35.86,35.86,0,0,0-.65-4.22,6.28,6.28,0,0,0-.91-2.09,3.61,3.61,0,0,0-1.84-1.41,4.91,4.91,0,0,0-4.72,1.2,8.92,8.92,0,0,0-2.42,5A35.6,35.6,0,0,0,223,91.22c.39,2.19.81,4.45,1.31,6.73a21.74,21.74,0,0,0,2.45,6.61,10.37,10.37,0,0,0,5.45,4.53,6.83,6.83,0,0,0,3.61.26,6.65,6.65,0,0,0,3.24-1.7,10.73,10.73,0,0,0,3.17-6.59,31,31,0,0,0-.19-7.34c-.54-4.84-1.06-9.5-1.56-14-.25-2.22-.49-4.39-.72-6.49s-.44-4.15-.82-6.09a20.7,20.7,0,0,0-1.71-5.42,11.7,11.7,0,0,0-3.21-4.06,12.64,12.64,0,0,0-8.44-2.55,10.47,10.47,0,0,0-6.27,2.34,8.34,8.34,0,0,0-2.4,3.52c-.32.94-.39,1.46-.43,1.46a6.92,6.92,0,0,1,.33-1.49,8.26,8.26,0,0,1,2.36-3.64,10.64,10.64,0,0,1,6.39-2.48,12.88,12.88,0,0,1,8.68,2.55,11.93,11.93,0,0,1,3.35,4.17,21.25,21.25,0,0,1,1.78,5.52c.38,2,.6,4,.85,6.12s.48,4.27.74,6.49c.5,4.44,1,9.11,1.58,13.94a31,31,0,0,1,.2,7.47,11.24,11.24,0,0,1-3.33,6.91,7.22,7.22,0,0,1-3.49,1.82,7.47,7.47,0,0,1-3.87-.27,11,11,0,0,1-5.73-4.76,22.54,22.54,0,0,1-2.49-6.77c-.5-2.3-.91-4.55-1.3-6.76a36,36,0,0,1-.35-12.71,9.4,9.4,0,0,1,2.58-5.18,5.27,5.27,0,0,1,5.11-1.25,4,4,0,0,1,2,1.56,6.63,6.63,0,0,1,.94,2.2,36.2,36.2,0,0,1,.62,4.28c.29,2.66.55,5,.76,6.85s.35,3.31.46,4.33c0,.48.08.85.1,1.13A2.29,2.29,0,0,1,234.81,92.9Z" style="fill:#263238"></path><path d="M166.22,84.87,153,79.38c-3.57,2.27-9.4,8.52-11,15.5a39,39,0,0,0-1,11.69c.22,4.23-.16,8.71-2.5,12.24-1.67,2.51-4.36,4.7-4.41,7.72-.05,3.47,3.54,6.46,2.81,9.86-.59,2.72-3.62,4.09-5.2,6.38-2.3,3.32-1.19,7.86.31,11.61,3.62,9.05-4.08,22.07,2.7,29.07,6.69-5.49,26.47-15.67,33.16-21.16a12.75,12.75,0,0,0,3.81-4.24c1.16-2.55.53-5.5-.07-8.23A243.5,243.5,0,0,1,166.22,84.87Z" style="fill:#263238"></path><path d="M245.28,240.94l-6.52-6.6L169.06,254s-3.83,30.64-3.44,32.6,0,7.56,0,7.56l96.19-7.5S262.9,260.57,245.28,240.94Z" style="fill:#263238"></path><path d="M187.91,267.58a2.82,2.82,0,0,1-.4.78c-.29.47-.71,1.16-1.31,2a15.74,15.74,0,0,1-2.38,2.6A11.13,11.13,0,0,1,180,275a24.36,24.36,0,0,1-7.73,1.15,21.28,21.28,0,0,1-2.36-.14,2.49,2.49,0,0,1-.86-.16c0-.08,1.24,0,3.22-.07a27.94,27.94,0,0,0,7.57-1.28,11.24,11.24,0,0,0,3.66-2,17.65,17.65,0,0,0,2.4-2.47C187.15,268.56,187.84,267.53,187.91,267.58Z" style="fill:#455a64"></path><path d="M210.84,290.7a3.77,3.77,0,0,1-.27-.95c-.14-.61-.33-1.51-.53-2.63-.42-2.23-.91-5.32-1.29-8.76s-.58-6.58-.66-8.84c0-1.13-.06-2-.05-2.69a3.18,3.18,0,0,1,.06-1,31.07,31.07,0,0,1,.36,3.65c.18,2.25.43,5.37.81,8.8s.81,6.52,1.13,8.76A27.23,27.23,0,0,1,210.84,290.7Z" style="fill:#455a64"></path><path d="M217.5,289.1c-.15,0-.74-5.18-1.32-11.59s-1-11.62-.81-11.64.74,5.18,1.32,11.59S217.64,289.09,217.5,289.1Z" style="fill:#455a64"></path><path d="M251.3,253.34a4.31,4.31,0,0,1-.65.79c-.44.49-1.09,1.18-2,2a21.43,21.43,0,0,1-3.25,2.58,13.08,13.08,0,0,1-4.76,1.88,9.58,9.58,0,0,1-5.08-.57,15.48,15.48,0,0,1-3.61-2.08,23.45,23.45,0,0,1-2.12-1.82,4.13,4.13,0,0,1-.7-.75c.06-.07,1.14.92,3,2.27a15.93,15.93,0,0,0,3.56,1.93,9.32,9.32,0,0,0,4.83.5,12.85,12.85,0,0,0,4.58-1.77,23.74,23.74,0,0,0,3.27-2.45C250.2,254.3,251.24,253.28,251.3,253.34Z" style="fill:#455a64"></path><path d="M256.63,272.74a4.24,4.24,0,0,1-.92.54l-2.57,1.34c-2.17,1.14-5.14,2.77-8.31,4.73s-6,3.9-8,5.33l-2.35,1.7a4,4,0,0,1-.9.58,5.15,5.15,0,0,1,.77-.74c.52-.45,1.29-1.08,2.26-1.84A92.05,92.05,0,0,1,253,274.29c1.11-.53,2-.94,2.66-1.2A3.68,3.68,0,0,1,256.63,272.74Z" style="fill:#455a64"></path><path d="M193.05,264.57c-.07,0-.31-.48-.63-1.33a17.46,17.46,0,0,1-.88-3.45,9.14,9.14,0,0,1,.2-3.58,3.28,3.28,0,0,1,.61-1.36,16,16,0,0,0-.29,4.87,29.71,29.71,0,0,0,.71,3.41A4.33,4.33,0,0,1,193.05,264.57Z" style="fill:#455a64"></path><path d="M197.25,264.82a4.68,4.68,0,0,1-.49-1.43,20.48,20.48,0,0,1-.65-3.6,9,9,0,0,1,.1-2,6,6,0,0,1,.55-1.59c.44-.85.89-1.24.93-1.2a10.08,10.08,0,0,1-.6,1.35,8,8,0,0,0-.46,3.45c.09,1.38.36,2.63.5,3.55A4.45,4.45,0,0,1,197.25,264.82Z" style="fill:#455a64"></path><path d="M223,262.4a18.46,18.46,0,0,0-5.77-13.32,6.17,6.17,0,0,1,1.74,1.39,15,15,0,0,1,3,4.47,14.82,14.82,0,0,1,1.21,5.24A6.31,6.31,0,0,1,223,262.4Z" style="fill:#455a64"></path><path d="M227.63,260.78a47.19,47.19,0,0,0-1.84-6.62,46.91,46.91,0,0,0-3.28-6,6.18,6.18,0,0,1,1.36,1.52,20.22,20.22,0,0,1,3.68,9.09A6.52,6.52,0,0,1,227.63,260.78Z" style="fill:#455a64"></path><path d="M209.92,257.33s.18-.27.7-.51a3.23,3.23,0,0,1,2.35-.09,3.16,3.16,0,0,1,1.4.93,3,3,0,0,1,.69,1.81,3.62,3.62,0,0,1-.55,2.06,3,3,0,0,1-1.88,1.34,3.43,3.43,0,0,1-3.77-1.85,3.24,3.24,0,0,1-.18-1.92,3.12,3.12,0,0,1,.67-1.55,3.32,3.32,0,0,1,2.13-1,1.08,1.08,0,0,1,.84.21,4.92,4.92,0,0,0-.82,0,3.23,3.23,0,0,0-1.87,1.06,2.78,2.78,0,0,0-.52,1.36,2.87,2.87,0,0,0,.18,1.66,3,3,0,0,0,3.23,1.54,2.84,2.84,0,0,0,2.06-2.87,2.62,2.62,0,0,0-.54-1.56,3,3,0,0,0-1.19-.85,3.23,3.23,0,0,0-2.16-.07C210.19,257.18,210,257.37,209.92,257.33Z" style="fill:#455a64"></path><path d="M147.62,160.25c-.55.67-16.59,10.89-19,17.47s1.47,33.42,2.14,38.06,9.77,22.16,9.77,22.16-1.91,7.56.59,12.22a16.93,16.93,0,0,0,7,6.74l16.12-8.83-10-45.26Z" style="fill:#FC466B"></path><path d="M149.37,207.79c.46-.65,1.08-1.07,1.46-1.56s1.2-.71,1.59-.24,0,1.34-.51,1.86c1.62.06,2.85-2.16,4.42-1.72a2,2,0,0,1,1,2.65,5,5,0,0,1-2.27,2.17,8.18,8.18,0,0,0-2.57,1.87c-.34.44-.56,1.11-.19,1.53.63.72,2.09-.13,2.65.64.37.52-.08,1.22-.51,1.7q-2.37,2.56-4.72,5.15a3.58,3.58,0,0,1-1.45,1.12,1.23,1.23,0,0,1-1.54-.63,1.44,1.44,0,0,1,.78-1.5,10.23,10.23,0,0,0,1.59-.88,1.16,1.16,0,0,0,.29-1.59c-.53-.54-1.43-.09-2,.38l-5.5,4.32a2.85,2.85,0,0,1-1.35.71,1,1,0,0,1-1.14-.77,1.39,1.39,0,0,1,.24-.75,13.78,13.78,0,0,1,4-4.41,7.07,7.07,0,0,0,1.77-1.44,1.82,1.82,0,0,0,.17-2.12,19.26,19.26,0,0,1-3.56,2.65c-.45.27-1.11.49-1.45.08s0-1,.37-1.45l5.69-6.68a2.83,2.83,0,0,1,1.8-1.22Z" style="fill:#fff"></path><path d="M157.3,145.61,156,153.52,144.16,163s-2.8,17.86-.13,36c0,0,17.35,47,17.77,49,.79,3.81,7.79,7,7.79,7s26.43.25,35.51-1.06,31-15.16,33.1-17,4.47-10.68,4.47-10.68l-16.16-45.26-.91-31.84-24.15-6.2-8.2-6.34Z" style="fill:#FC466B"></path><path d="M228.52,178.63c.46-.65,1.08-1.07,1.45-1.56s1.21-.71,1.6-.24,0,1.34-.52,1.86c1.63.06,2.86-2.16,4.43-1.72a2,2,0,0,1,1,2.65,5,5,0,0,1-2.27,2.17,8.18,8.18,0,0,0-2.57,1.87c-.34.45-.56,1.11-.19,1.53.62.72,2.09-.13,2.65.64.37.52-.08,1.22-.51,1.7q-2.37,2.57-4.72,5.15a3.58,3.58,0,0,1-1.45,1.12,1.22,1.22,0,0,1-1.54-.63,1.42,1.42,0,0,1,.78-1.49,11.18,11.18,0,0,0,1.59-.89,1.17,1.17,0,0,0,.29-1.59c-.53-.54-1.43-.09-2,.38L221,193.9a2.78,2.78,0,0,1-1.34.71,1,1,0,0,1-1.14-.77,1.39,1.39,0,0,1,.24-.75,13.78,13.78,0,0,1,4-4.41,7.07,7.07,0,0,0,1.77-1.44,1.82,1.82,0,0,0,.17-2.12,19.26,19.26,0,0,1-3.56,2.65c-.46.27-1.11.49-1.45.08s0-1,.37-1.45q2.85-3.35,5.69-6.68a2.83,2.83,0,0,1,1.8-1.22Z" style="fill:#fff"></path><path d="M225.21,149.31S238.58,154,242.08,162s16.9,46,16.06,53-3.07,15-9.13,15.36-13-5.81-13-5.81l-5.44-8.85.29-9.27-6.18-24.68Z" style="fill:#FC466B"></path><path d="M157.81,149.48c0,.06,27.62,33.84,27.62,33.84l3.75-31.3,5.23-15.41-36,8.89Z" style="fill:#967262"></path><g style="opacity:0.30000000000000004"><path d="M214.81,147.05c-1.63-.82-3.59-.17-5.24.6-9.34,4.41-19.49,9.76-22.23,19.71l-.11,6c.86,3.62,4.6,6,8.31,6.32s7.36-1.06,10.68-2.74a56.72,56.72,0,0,0,8.5-5.26c1.48-1.11,3-2.47,3.29-4.3.37-2.5-1.73-4.68-2.2-7.16-.45-2.31.54-4.63,1-6.94S216.92,148.1,214.81,147.05Z"></path></g><path d="M144,199.05a2.47,2.47,0,0,1,.27.58l.68,1.7c.57,1.49,1.39,3.64,2.37,6.31,2,5.34,4.49,12.79,7.32,21,1.43,4.1,2.82,8,4.1,11.53.64,1.77,1.23,3.46,1.85,5a24.52,24.52,0,0,0,2.11,4.1,15.63,15.63,0,0,0,4.71,4.65c1.35.83,2.18,1.15,2.15,1.2a2.94,2.94,0,0,1-.6-.22,11.94,11.94,0,0,1-1.65-.81,15,15,0,0,1-4.91-4.62,23.91,23.91,0,0,1-2.21-4.13c-.65-1.56-1.25-3.24-1.91-5-1.3-3.53-2.71-7.42-4.13-11.53-2.8-8.18-5.33-15.59-7.18-21-.92-2.65-1.67-4.8-2.21-6.37l-.59-1.74A3.38,3.38,0,0,1,144,199.05Z" style="fill:#263238"></path><path d="M185.3,184.39a1.67,1.67,0,0,1-.26-.3l-.71-.91c-.62-.79-1.52-2-2.7-3.4a109.87,109.87,0,0,0-10.43-11.1l.4-.17c-.11,4.58-.23,9.72-.36,15.14,0,.48,0,1,0,1.4l0,1.07-.46-1c-4.25-8.71-8.06-16.54-10.84-22.26-1.34-2.8-2.42-5.08-3.21-6.72-.35-.76-.63-1.37-.84-1.84a4.61,4.61,0,0,1-.27-.65,3.09,3.09,0,0,1,.36.61c.24.45.55,1,.93,1.79l3.36,6.65c2.82,5.7,6.68,13.5,11,22.19l-.49.11c0-.45,0-.92,0-1.4.15-5.42.28-10.56.4-15.14l0-.53.38.36a101.71,101.71,0,0,1,10.33,11.27c1.15,1.47,2,2.67,2.6,3.49l.65.95A1.61,1.61,0,0,1,185.3,184.39Z" style="fill:#263238"></path><path d="M224.62,208.82c.11.1-8,8.73-18,19.27s-18.28,19-18.38,18.91,7.95-8.72,18-19.27S224.52,208.72,224.62,208.82Z" style="fill:#263238"></path><path d="M209.63,252.31a23.74,23.74,0,0,1-.78-3.13c-.45-1.94-1.13-4.6-2.06-7.48s-1.95-5.44-2.73-7.27a27.35,27.35,0,0,1-1.21-3,17,17,0,0,1,1.55,2.84,60.14,60.14,0,0,1,2.88,7.26,59.28,59.28,0,0,1,1.93,7.56A16,16,0,0,1,209.63,252.31Z" style="fill:#263238"></path><path d="M141.93,197.39a60.13,60.13,0,0,1-6.71-4.24,60.11,60.11,0,0,1-6.43-4.66,59.68,59.68,0,0,1,6.72,4.23A60.12,60.12,0,0,1,141.93,197.39Z" style="fill:#263238"></path><path d="M249,230.3s-.12,0-.35,0h-1a9.47,9.47,0,0,1-1.64-.13,13.37,13.37,0,0,1-2.18-.48,14.54,14.54,0,0,1-5.16-3,17.8,17.8,0,0,1-4.42-6.23h0v0c-.94-3.8-2-8-3.08-12.46-2-8.46-3.89-16.11-5.24-21.73l-1.54-6.6-.39-1.8a3,3,0,0,1-.1-.63,2.48,2.48,0,0,1,.21.61q.18.69.48,1.77c.42,1.62,1,3.84,1.69,6.56,1.4,5.61,3.3,13.25,5.4,21.7,1.08,4.44,2.11,8.67,3,12.47v0a17.84,17.84,0,0,0,4.25,6.11,14.43,14.43,0,0,0,5,3A20.78,20.78,0,0,0,249,230.3Z" style="fill:#263238"></path><path d="M151.33,230.92a18.32,18.32,0,0,1-2,.44,13.6,13.6,0,0,0-7.8,5.31,19.73,19.73,0,0,1-1.13,1.68,5.08,5.08,0,0,1,.82-1.88,11.87,11.87,0,0,1,3.44-3.58,11.67,11.67,0,0,1,4.59-1.89A4.84,4.84,0,0,1,151.33,230.92Z" style="fill:#263238"></path><path d="M151.51,229.78a14.77,14.77,0,0,1-4.69,1.78,14.53,14.53,0,0,1-5,.62c0-.15,2.19-.46,4.85-1.12S151.45,229.64,151.51,229.78Z" style="fill:#263238"></path><path d="M148.38,174.23c.47-.65,1.09-1.07,1.46-1.56s1.2-.72,1.6-.24,0,1.33-.52,1.85c1.63.07,2.86-2.15,4.43-1.71a2,2,0,0,1,1,2.65,5,5,0,0,1-2.27,2.17,8.26,8.26,0,0,0-2.56,1.87c-.34.44-.56,1.11-.19,1.53.62.72,2.09-.13,2.64.64.38.52-.07,1.22-.51,1.69l-4.71,5.16a3.58,3.58,0,0,1-1.45,1.12,1.23,1.23,0,0,1-1.54-.63,1.44,1.44,0,0,1,.78-1.5,11.7,11.7,0,0,0,1.59-.88,1.16,1.16,0,0,0,.28-1.59c-.52-.55-1.42-.09-2,.37l-5.51,4.33a2.78,2.78,0,0,1-1.34.71,1,1,0,0,1-1.14-.77,1.36,1.36,0,0,1,.24-.75,13.68,13.68,0,0,1,4.05-4.41,7.25,7.25,0,0,0,1.76-1.44,1.82,1.82,0,0,0,.18-2.12,20.08,20.08,0,0,1-3.56,2.65c-.46.27-1.11.48-1.45.08s0-1,.36-1.46l5.7-6.67a2.86,2.86,0,0,1,1.8-1.23Z" style="fill:#fff"></path><path d="M190.4,187.81c.46-.65,1.08-1.07,1.46-1.56s1.2-.72,1.59-.24,0,1.33-.52,1.85c1.63.07,2.86-2.15,4.43-1.71a2,2,0,0,1,1,2.65,5,5,0,0,1-2.27,2.16,8.37,8.37,0,0,0-2.57,1.88c-.34.44-.56,1.11-.19,1.53.63.71,2.09-.13,2.65.64.37.52-.08,1.22-.51,1.69l-4.72,5.16A3.58,3.58,0,0,1,189.3,203a1.23,1.23,0,0,1-1.54-.64,1.43,1.43,0,0,1,.78-1.49,12.21,12.21,0,0,0,1.59-.88c.46-.39.71-1.16.29-1.59s-1.43-.09-2,.37l-5.5,4.33a3,3,0,0,1-1.35.71,1,1,0,0,1-1.14-.77,1.36,1.36,0,0,1,.24-.75,13.57,13.57,0,0,1,4-4.41,7.3,7.3,0,0,0,1.77-1.44,1.82,1.82,0,0,0,.17-2.12,19.72,19.72,0,0,1-3.56,2.65c-.45.26-1.11.48-1.45.08s0-1,.37-1.46q2.85-3.33,5.69-6.68a2.91,2.91,0,0,1,1.8-1.22Z" style="fill:#fff"></path><path d="M174.39,227.62c.47-.65,1.09-1.07,1.46-1.56s1.2-.71,1.6-.24,0,1.34-.52,1.85c1.63.07,2.86-2.15,4.43-1.71a2,2,0,0,1,1,2.65,5,5,0,0,1-2.27,2.17,8.26,8.26,0,0,0-2.56,1.87c-.34.44-.56,1.11-.19,1.53.62.72,2.09-.13,2.64.64.38.52-.07,1.22-.51,1.69l-4.71,5.16a3.58,3.58,0,0,1-1.45,1.12,1.23,1.23,0,0,1-1.54-.63,1.44,1.44,0,0,1,.78-1.5,10.23,10.23,0,0,0,1.59-.88,1.16,1.16,0,0,0,.28-1.59c-.52-.55-1.42-.09-2,.37l-5.51,4.33a2.78,2.78,0,0,1-1.34.71,1,1,0,0,1-1.14-.77,1.36,1.36,0,0,1,.24-.75,13.78,13.78,0,0,1,4-4.41,6.85,6.85,0,0,0,1.76-1.44,1.82,1.82,0,0,0,.18-2.12,19.6,19.6,0,0,1-3.56,2.65c-.46.27-1.11.49-1.45.08s0-1,.36-1.45l5.7-6.68a2.86,2.86,0,0,1,1.8-1.23Z" style="fill:#fff"></path><path d="M222.16,224.12c.46-.65,1.09-1.07,1.46-1.56s1.2-.72,1.6-.24-.05,1.33-.52,1.85c1.63.07,2.86-2.15,4.43-1.71a2,2,0,0,1,1,2.65,5,5,0,0,1-2.27,2.16,8.45,8.45,0,0,0-2.56,1.88c-.34.44-.56,1.11-.19,1.53.62.71,2.09-.13,2.64.64.38.52-.08,1.22-.51,1.69l-4.72,5.16a3.52,3.52,0,0,1-1.45,1.12,1.24,1.24,0,0,1-1.54-.64,1.42,1.42,0,0,1,.79-1.49,11.59,11.59,0,0,0,1.58-.88c.46-.39.71-1.16.29-1.59s-1.42-.09-2,.37l-5.5,4.33a2.9,2.9,0,0,1-1.35.71,1,1,0,0,1-1.14-.77,1.3,1.3,0,0,1,.25-.75,13.57,13.57,0,0,1,4.05-4.41,7.44,7.44,0,0,0,1.76-1.44,1.82,1.82,0,0,0,.18-2.12,20.08,20.08,0,0,1-3.56,2.65c-.46.27-1.12.48-1.46.08s0-1,.37-1.46l5.7-6.67a2.83,2.83,0,0,1,1.8-1.23Z" style="fill:#fff"></path><path d="M203.92,229.47a1.78,1.78,0,0,1-.27-.41l-.7-1.23c-.6-1.06-1.44-2.63-2.43-4.58-2-3.9-4.61-9.38-7.18-15.55s-4.61-11.89-6-16.06c-.68-2.09-1.2-3.78-1.54-5-.15-.54-.27-1-.37-1.36a1.78,1.78,0,0,1-.1-.49,2,2,0,0,1,.2.46c.12.36.28.8.47,1.33.42,1.23,1,2.89,1.69,4.9,1.44,4.13,3.53,9.81,6.09,16s5.11,11.65,7,15.58c.93,1.92,1.7,3.49,2.28,4.66l.61,1.27A1.82,1.82,0,0,1,203.92,229.47Z" style="fill:#263238"></path><path d="M258.18,214.14c0,.75-3.46,2.32-4.2,2.24l-.87-.27c-.56.57-1.24.89-1.68,1.32s-1.3.52-1.62,0,.25-1.31.8-1.75c-1.6-.31-3.16,1.69-4.64,1a2,2,0,0,1-.57-2.77,5,5,0,0,1,2.58-1.79,8.31,8.31,0,0,0,2.82-1.45c.4-.39.72-1,.42-1.49-.5-.8-2.08-.19-2.51-1-.29-.57.26-1.19.77-1.59,1.81-1.46,4.3-3.49,6.12-4.95C255.6,201.59,258.11,210.72,258.18,214.14Z" style="fill:#fff"></path><g style="opacity:0.30000000000000004"><path d="M188.5,246.44c14.5-7.91,27.44-20.65,34.46-35.6Z"></path></g><g style="opacity:0.30000000000000004"><path d="M140.43,238.35c2.84-6.1,8.43-7.77,13.86-7.7a1.3,1.3,0,0,0-.93-1.47,3.64,3.64,0,0,0-1.91,0,21.34,21.34,0,0,0-7.5,2.57,7.49,7.49,0,0,0-3.43,6.39"></path></g><g style="opacity:0.30000000000000004"><path d="M155.73,153.86a137.39,137.39,0,0,0,17,38.17,22.1,22.1,0,0,0,3.36-14.64,17,17,0,0,0,8.27,5.82c-3.85-5.29-7.85-10.32-12.85-14.53,0,0-.43,17-.42,16.53-5.23-10.51-10.32-20.86-15.38-31.35"></path></g><path d="M199.79,106.66c-1.49,4.85-3.61,8.58-8.31,10.49-4.11,1.67-8.76,1.35-13.1.46-14.11-2.91-28.92-10.43-36.41-22.73l4-8.72c4.23-6.65,14.57-14.53,26.57-10.63a19.94,19.94,0,0,1,18.81,4.34C200.55,87.7,199.79,106.66,199.79,106.66Z" style="fill:#263238"></path><path d="M165.89,82.17c-8.24-1-18.88,9-19.56,17.29-.76,9.2-1.32,20.46-.37,27.35,1.93,13.86,12.49,15.82,12.49,15.82l-.51,7.05,31.56-6.06,1.36-49.43.17-4.46Z" style="fill:#967262"></path><path d="M151.46,109.44a1.77,1.77,0,0,0,1.67,1.82A1.7,1.7,0,0,0,155,109.7a1.77,1.77,0,0,0-1.67-1.82A1.7,1.7,0,0,0,151.46,109.44Z" style="fill:#263238"></path><path d="M149.14,105.39c.21.23,1.57-.73,3.48-.69s3.29,1,3.5.79-.11-.52-.71-1a4.94,4.94,0,0,0-2.8-.92,4.71,4.71,0,0,0-2.78.84C149.24,104.87,149,105.28,149.14,105.39Z" style="fill:#263238"></path><path d="M169.26,110.13a1.78,1.78,0,0,0,1.67,1.82,1.7,1.7,0,0,0,1.86-1.56,1.78,1.78,0,0,0-1.67-1.83A1.7,1.7,0,0,0,169.26,110.13Z" style="fill:#263238"></path><path d="M167.87,106.11c.22.23,1.58-.73,3.49-.69s3.28,1,3.49.79-.11-.52-.71-1a4.91,4.91,0,0,0-2.79-.92,4.68,4.68,0,0,0-2.78.84C168,105.59,167.77,106,167.87,106.11Z" style="fill:#263238"></path><path d="M160.68,120.11a13.29,13.29,0,0,0-3.09-.61c-.48-.06-.94-.17-1-.5a2.45,2.45,0,0,1,.36-1.44c.48-1.17,1-2.4,1.51-3.68,2.1-5.24,3.63-9.55,3.42-9.63s-2.09,4.09-4.19,9.33c-.51,1.29-1,2.53-1.45,3.71a2.74,2.74,0,0,0-.29,1.9,1.19,1.19,0,0,0,.79.73,3.37,3.37,0,0,0,.82.13A12.22,12.22,0,0,0,160.68,120.11Z" style="fill:#263238"></path><path d="M158.45,142.67a36.61,36.61,0,0,0,19.07-4.59s-5.05,9.54-19.32,8Z" style="fill:#77574a"></path><path d="M161.4,124.73a3.41,3.41,0,0,1,3.1-1.22,3.11,3.11,0,0,1,2.14,1.2,2,2,0,0,1,.11,2.28,2.3,2.3,0,0,1-2.51.58,7.07,7.07,0,0,1-2.41-1.5,2.2,2.2,0,0,1-.53-.57.63.63,0,0,1,0-.71" style="fill:#77574a"></path><path d="M166.26,121.54c-.31,0-.35,2-2.15,3.48s-4,1.17-4,1.46c0,.12.48.41,1.41.45a5.14,5.14,0,0,0,3.36-1.1,4.48,4.48,0,0,0,1.67-2.92C166.63,122.05,166.41,121.53,166.26,121.54Z" style="fill:#263238"></path><path d="M167.53,98.63c.17.52,2.08.31,4.31.62s4,1,4.34.5c.14-.22-.17-.71-.89-1.23a7.37,7.37,0,0,0-3.2-1.19,7.2,7.2,0,0,0-3.39.34C167.87,98,167.45,98.38,167.53,98.63Z" style="fill:#263238"></path><path d="M150,99.88c.32.44,1.65,0,3.22,0s2.92.35,3.23-.1c.14-.22-.06-.65-.64-1.08a4.45,4.45,0,0,0-2.61-.76,4.55,4.55,0,0,0-2.59.82C150,99.23,149.8,99.67,150,99.88Z" style="fill:#263238"></path><path d="M189.75,88.35c-1.11-2.33-3.84-3.29-6.26-4.17-3.42-1.24-6.74-2.77-10.23-3.79a20.89,20.89,0,0,0-10.77-.65c-3.65.88-6.81,3.15-9.6,5.66-3.68,3.31-7,7.37-7.94,12.23l0,1.67c7.93-2.25,15.82-10.54,21.56-16.45C171.46,89.75,179.7,102,187,105c.49-3.53,3-8.65,3.28-12.2A9.08,9.08,0,0,0,189.75,88.35Z" style="fill:#263238"></path><path d="M216.42,144.15c-.54-2.76-3.27-4.43-5.66-5.91s-4.95-3.6-4.81-6.41,3.27-5.23,3-8.16-3.9-4.49-5.83-6.9c-2.8-3.48-3.34-5.65-3.34-10.11,0-8.73-3.49-20.13-11.18-24.29L178.56,90.8c2.92,8.15,5.88,16.67,4.86,25.28-.61,5.1-2.61,10.06-2.32,15.19.31,5.51,3.22,10.53,4.21,15.95.94,5.14.13,10.43.39,15.65s2,10.86,6.42,13.63l16.69-8c1.81-.87,3.85-2,4.11-4s-1.51-3.76-2-5.76C209.72,153.51,217.44,149.41,216.42,144.15Z" style="fill:#263238"></path><path d="M199.51,101.49a12.4,12.4,0,0,1-2.47.82,32.37,32.37,0,0,1-6.22,1.11,18.76,18.76,0,0,1-6.28-.68,9,9,0,0,1-2.44-.95c.05-.21,3.81,1.44,8.69,1.11a42.93,42.93,0,0,0,6.16-1A13.91,13.91,0,0,1,199.51,101.49Z" style="fill:#455a64"></path><path d="M199.83,104.7a8.54,8.54,0,0,1-2.25,1.23,16.65,16.65,0,0,1-6.05,1.3,21.52,21.52,0,0,1-6.14-.84,10.23,10.23,0,0,1-2.4-.87,17.22,17.22,0,0,1,2.49.51,25.89,25.89,0,0,0,6,.68,19.17,19.17,0,0,0,5.93-1.12A24.14,24.14,0,0,1,199.83,104.7Z" style="fill:#455a64"></path><path d="M141.2,99.53a22.63,22.63,0,0,1,2.65-.22,22.85,22.85,0,0,1,2.64-.42,6,6,0,0,1-5.29.64Z" style="fill:#455a64"></path><path d="M140.7,101.11c.09-.12,1.15.61,2.62,1.11s2.75.59,2.75.75a4.54,4.54,0,0,1-2.92-.26A4.46,4.46,0,0,1,140.7,101.11Z" style="fill:#455a64"></path><path d="M187.45,169.79a2.66,2.66,0,0,1-.72-.21,5.13,5.13,0,0,1-1.79-1.26,5.94,5.94,0,0,1-1.5-3.11,5,5,0,0,1,.16-2.19,9.2,9.2,0,0,1,1.05-2.2,19.12,19.12,0,0,0,1.29-2.27,7.09,7.09,0,0,0,.57-2.7,11.85,11.85,0,0,0-1.79-5.86,63.43,63.43,0,0,0-4.08-5.63,15.89,15.89,0,0,1-3.23-6.81,18.28,18.28,0,0,1,.44-7.54,45.41,45.41,0,0,1,2.35-6.61c.86-2.05,1.7-4,2.33-5.85a26.08,26.08,0,0,0,1.27-5.31,18.32,18.32,0,0,0-.47-7.83,11.31,11.31,0,0,0-1.23-2.62,3.28,3.28,0,0,1,.47.59,9,9,0,0,1,1,2,18,18,0,0,1,.64,7.94,26.1,26.1,0,0,1-1.23,5.4c-.62,1.89-1.45,3.84-2.3,5.9a44.63,44.63,0,0,0-2.29,6.55,17.79,17.79,0,0,0-.43,7.32,15.47,15.47,0,0,0,3.13,6.6,62.72,62.72,0,0,1,4.09,5.69,12.26,12.26,0,0,1,1.8,6.11,7.47,7.47,0,0,1-.63,2.85A20.08,20.08,0,0,1,185,161a9.58,9.58,0,0,0-1.05,2.1,4.86,4.86,0,0,0-.18,2,5.74,5.74,0,0,0,1.36,3A6,6,0,0,0,187.45,169.79Z" style="fill:#263238"></path><path d="M173.07,75.38a13.78,13.78,0,0,0-4,2.74,14,14,0,0,0-2.4,4.2,2.88,2.88,0,0,1,.21-1.46,8.36,8.36,0,0,1,4.74-5.15A2.93,2.93,0,0,1,173.07,75.38Z" style="fill:#455a64"></path><path d="M226.06,169.38l-6.81-10.73-.47-10.55,2.67-7.22s2.13-.51,2.48,2a13.87,13.87,0,0,1-.79,5.62l1.46,5.12s.48.55.93-1.58-.33-17.92-.34-19,.08-3.67,1.69-3.43S229,132,229,133.09s1.18,11.69,1.18,11.69.38.95.76.81-.34-11.37-.41-13.14-.47-5.71,1.61-5.71,2.08,2,2.2,4.14,1.47,14.33,1.47,14.33.32.76.62-.26.67-14.24.9-14.86,1.45-1.44,2.39.06.72,5,.59,11.15c-.12,5.55-.29,7.85.34,8.29s3-3,3-3,2.84-7.32,5.25-7.06.79,2.13.38,3.83c-.35,1.44-4.56,10-4.65,10.11s-4.23,15.36-4.23,15.36l9.14,17.47a16.37,16.37,0,0,1,1.77,9.92c-.55,3.73-2.46,7.89-7.93,9.59-4,1.26-7-.54-9-2.66a13.27,13.27,0,0,1-3.23-6.7c-1.17-6.74-5.11-27.09-5.11-27.09Z" style="fill:#967262"></path><path d="M232.86,161.68c-.09,0,0-.82-.22-2.06a8.27,8.27,0,0,0-2.22-4.29,5.77,5.77,0,0,0-3.43-1.75,3.59,3.59,0,0,0-2.34.53l-.1.06,0-.09c-.13-.28-.19-.44-.16-.45s.13.1.32.36l-.14,0a3.36,3.36,0,0,1,2.49-.8,5.81,5.81,0,0,1,3.77,1.8,7.9,7.9,0,0,1,2.22,4.6A4.23,4.23,0,0,1,232.86,161.68Z" style="fill:#77574a"></path><path d="M238.61,153.57c.09.13-.83.92-1.73,2.09a21.09,21.09,0,0,1-1.6,2.19,6.41,6.41,0,0,1,3.33-4.28Z" style="fill:#77574a"></path><path d="M146.21,249.1a18.5,18.5,0,0,0,4.88,12,95.7,95.7,0,0,0,7.08,6.92l17.22,7.72s4.49.68,9-3.71a15,15,0,0,0,3.5-4.5s5.16,2.31,7.18,2.22c3.4-.15,2.86-2.55,2.86-2.55s-11.37-6.26-14.07-8.68-10.48-4-16-3.29l-3.2-.63-1.16-4.3s-6.24-9.29-12-6S146.21,249.1,146.21,249.1Z" style="fill:#967262"></path></g></svg>
